<?xml version="1.0" encoding="utf-8"?>
<svg viewBox="0 0 500 500" width="500" height="500" xmlns="http://www.w3.org/2000/svg">
  <rect x="108.527" y="133.147" width="297.804" height="258.398" style="stroke: rgb(0, 0, 0); fill: rgb(255, 255, 255);"/>
  <path d="M 479.497 -0.13 L 19.855 -0.13 C 8.801 -0.13 -0.13 8.801 -0.13 19.855 L -0.13 479.498 C -0.13 490.551 8.801 499.483 19.855 499.483 L 479.497 499.483 C 490.551 499.483 499.483 490.551 499.483 479.498 L 499.483 19.855 C 499.483 8.801 490.551 -0.13 479.497 -0.13 Z M 250.363 253.486 L 130.456 354.033 C 127.209 356.78 122.274 354.47 122.274 350.223 L 122.274 311.066 C 122.274 309.63 122.962 308.194 124.086 307.256 L 192.658 249.676 L 124.086 192.097 C 122.923 191.177 122.253 189.769 122.274 188.286 L 122.274 149.129 C 122.274 144.882 127.209 142.572 130.456 145.32 L 250.363 245.804 C 252.799 247.804 252.799 251.488 250.363 253.486 Z M 377.078 350.223 C 377.078 352.972 374.953 355.219 372.394 355.219 L 256.858 355.219 C 254.297 355.219 252.174 352.972 252.174 350.223 L 252.174 320.247 C 252.174 317.5 254.297 315.251 256.858 315.251 L 372.394 315.251 C 374.953 315.251 377.078 317.5 377.078 320.247 L 377.078 350.223 Z" style=""/>
</svg>